<svg xmlns="http://www.w3.org/2000/svg" xmlns:xlink="http://www.w3.org/1999/xlink" width="256" height="256" viewBox="0 0 256 256"><defs><linearGradient id="a" x1="0.036" y1="0.076" x2="1" y2="1" gradientUnits="objectBoundingBox"><stop offset="0" stop-color="#4299ee"/><stop offset="1" stop-color="#203bc7"/></linearGradient><clipPath id="c"><rect width="256" height="256"/></clipPath></defs><g id="b" clip-path="url(#c)"><rect width="256" height="256" fill="url(#a)"/><path d="M96.095,11H8.587A6.09,6.09,0,0,0,2.5,17.087V68.08a6.09,6.09,0,0,0,6.087,6.087H38.6l9.758,16.474a4.716,4.716,0,0,0,8.079,0l9.758-16.474H96.2a6.09,6.09,0,0,0,6.087-6.087V17.087A6.25,6.25,0,0,0,96.095,11ZM35.132,39.96l-3.777,3.778a.385.385,0,0,0-.1.315l.84,5.141a.7.7,0,0,1-.944.734l-4.723-2.518c-.1-.1-.21-.1-.42,0l-4.617,2.413a.652.652,0,0,1-.944-.734l.944-5.246c0-.1,0-.315-.1-.315L17.5,39.855a.665.665,0,0,1,.42-1.154l5.246-.734c.1,0,.21-.1.315-.21l2.308-4.723a.7.7,0,0,1,1.259,0l2.308,4.723c.1.1.21.21.315.21l5.141.734c.525.21.735.944.315,1.259Zm26.022,0-3.777,3.672a.386.386,0,0,0-.1.315l.84,5.141a.7.7,0,0,1-.944.734L52.444,47.3c-.1-.1-.21-.1-.42,0l-4.617,2.518a.652.652,0,0,1-.944-.734l.944-5.246c0-.1,0-.315-.1-.315l-3.776-3.672a.665.665,0,0,1,.42-1.154l5.246-.734c.1,0,.21-.1.315-.21l2.308-4.723a.7.7,0,0,1,1.259,0l2.308,4.723c.1.1.21.21.315.21l5.141.734c.525.21.734.944.315,1.259Zm26.022,0L83.4,43.632a.386.386,0,0,0-.1.315l.84,5.141a.7.7,0,0,1-.944.734L78.466,47.3c-.1-.1-.21-.1-.42,0l-4.512,2.518a.652.652,0,0,1-.944-.734l.944-5.246c0-.1,0-.315-.1-.315l-3.776-3.672a.665.665,0,0,1,.42-1.154l5.246-.734c.1,0,.21-.1.315-.21l2.308-4.723a.7.7,0,0,1,1.259,0l2.308,4.723c.1.1.21.21.315.21l5.141.734a.8.8,0,0,1,.21,1.259Z" transform="translate(75.42 76.389)" fill="#fff"/></g></svg>